# xmcd
#
# Track frame offsets: 
#        150
#        13536
#        24480
#        36570
#        48353
#        60107
#        71786
#        83595
#        94858
#        107790
#        120662
#        134275
#        147739
#        158021
#        171652
#        181976
#        191946
#        202763
#        215239
#        226989
#
# Disc length: 3198 seconds
#
# Revision: 1
# Processed by: cddbd v1.5.2PL0 Copyright (c) Steve Scherf et al.
# Submitted via: ExactAudioCopy v0.99pb5
#
DISCID=220c7c14
DTITLE=Robert Johnson - Reborn And Remastered [CD1]
DYEAR=2010
DGENRE=Blues
TTITLE0=I Believe I'll Dust My Broom
TTITLE1=Love In Vain
TTITLE2=Cross Road Blues
TTITLE3=Me And The Devil Blues
TTITLE4=I'm A Steady Rollin' Man
TTITLE5=If I Had Possesion Over Judgement Day
TTITLE6=Come On In My Kitchen
TTITLE7=Walking Blues
TTITLE8=Ramblin' On My Mind
TTITLE9=Preachin' Blues (Up Jumped The Devil)
TTITLE10=Sweet Home Chicago
TTITLE11=They're Red Hot
TTITLE12=Milkcow's Calf Blues
TTITLE13=Terraplane Blues
TTITLE14=Stop Breakin' Down Blues
TTITLE15=Little Queen Of Spades
TTITLE16=From Four Till Late
TTITLE17=Travelling Riverside Blues
TTITLE18=Hellhound On My Trail
TTITLE19=32-20 Blues
EXTD=YEAR: 2010
EXTT0=
EXTT1=
EXTT2=
EXTT3=
EXTT4=
EXTT5=
EXTT6=
EXTT7=
EXTT8=
EXTT9=
EXTT10=
EXTT11=
EXTT12=
EXTT13=
EXTT14=
EXTT15=
EXTT16=
EXTT17=
EXTT18=
EXTT19=
PLAYORDER=
